<svg xmlns="http://www.w3.org/2000/svg" xmlns:xlink="http://www.w3.org/1999/xlink" width="500" zoomAndPan="magnify" viewBox="0 0 375 374.999991" height="500" preserveAspectRatio="xMidYMid meet" version="1.0"><defs><g/></defs><rect x="-37.5" width="450" fill="#ffffff" y="-37.499999" height="449.999989" fill-opacity="1"/><rect x="-37.5" width="450" fill="#0b1320" y="-37.499999" height="449.999989" fill-opacity="1"/><g fill="#f3f6fa" fill-opacity="1"><g transform="translate(84.076787, 278.607752)"><g><path d="M 62.28125 0 C 60.945312 0 59.863281 -0.664062 59.03125 -2 C 58.363281 -3 57.820312 -4.039062 57.40625 -5.125 C 56.988281 -6.207031 56.613281 -7.332031 56.28125 -8.5 C 54.945312 -12.5 53.984375 -16.539062 53.390625 -20.625 C 52.804688 -24.71875 52.265625 -28.929688 51.765625 -33.265625 C 50.929688 -40.597656 50.640625 -47.890625 50.890625 -55.140625 C 51.140625 -62.398438 51.515625 -69.78125 52.015625 -77.28125 C 52.179688 -78.445312 52.304688 -79.570312 52.390625 -80.65625 C 52.472656 -81.738281 52.597656 -82.863281 52.765625 -84.03125 C 52.929688 -85.03125 53.097656 -86.070312 53.265625 -87.15625 C 53.429688 -88.238281 53.601562 -89.367188 53.78125 -90.546875 C 53.78125 -91.378906 53.820312 -92.171875 53.90625 -92.921875 C 53.988281 -93.671875 54.113281 -94.460938 54.28125 -95.296875 C 54.28125 -96.460938 53.691406 -97.128906 52.515625 -97.296875 C 48.179688 -97.296875 43.929688 -96.960938 39.765625 -96.296875 C 38.765625 -95.960938 38.015625 -95.296875 37.515625 -94.296875 L 36.015625 -90.046875 C 34.679688 -85.367188 33.265625 -80.78125 31.765625 -76.28125 C 30.265625 -71.78125 28.765625 -67.28125 27.265625 -62.78125 C 25.765625 -58.113281 24.265625 -53.523438 22.765625 -49.015625 C 21.265625 -44.515625 19.847656 -39.929688 18.515625 -35.265625 C 17.835938 -32.929688 17.082031 -30.765625 16.25 -28.765625 C 15.414062 -26.765625 14.582031 -24.929688 13.75 -23.265625 C 12.914062 -21.429688 11.582031 -20.515625 9.75 -20.515625 C 8.582031 -20.847656 7.707031 -21.304688 7.125 -21.890625 C 6.539062 -22.472656 6.164062 -23.429688 6 -24.765625 C 5.832031 -26.429688 5.914062 -28.179688 6.25 -30.015625 C 6.582031 -31.847656 7.082031 -33.679688 7.75 -35.515625 C 7.914062 -36.679688 8.582031 -37.265625 9.75 -37.265625 C 10.25 -37.265625 10.664062 -37.097656 11 -36.765625 C 11.832031 -36.597656 12.082031 -36.097656 11.75 -35.265625 C 10.582031 -32.597656 10.082031 -30.179688 10.25 -28.015625 C 11.25 -28.347656 11.914062 -28.929688 12.25 -29.765625 C 12.414062 -30.097656 12.539062 -30.515625 12.625 -31.015625 C 12.707031 -31.515625 12.832031 -31.929688 13 -32.265625 C 13.332031 -33.597656 13.75 -34.890625 14.25 -36.140625 C 14.75 -37.390625 15.164062 -38.597656 15.5 -39.765625 C 15.832031 -41.097656 16.207031 -42.390625 16.625 -43.640625 C 17.039062 -44.890625 17.414062 -46.097656 17.75 -47.265625 L 31.265625 -88.53125 L 32.765625 -93.796875 C 32.265625 -93.960938 31.890625 -94.085938 31.640625 -94.171875 C 31.390625 -94.253906 31.179688 -94.296875 31.015625 -94.296875 C 28.015625 -93.628906 24.59375 -92.5 20.75 -90.90625 C 16.914062 -89.320312 13.414062 -87.320312 10.25 -84.90625 C 7.082031 -82.488281 4.832031 -79.78125 3.5 -76.78125 C 2.5 -74.28125 3.332031 -72.78125 6 -72.28125 L 8.75 -71.53125 C 9.082031 -71.195312 9.25 -70.863281 9.25 -70.53125 C 9.25 -69.863281 9.082031 -69.53125 8.75 -69.53125 C 8.414062 -69.363281 7.75 -69.28125 6.75 -69.28125 C 4.75 -69.28125 3.039062 -69.988281 1.625 -71.40625 C 0.207031 -72.820312 -0.332031 -74.613281 0 -76.78125 C 0 -79.113281 0.914062 -81.195312 2.75 -83.03125 C 6.414062 -87.539062 10.582031 -90.960938 15.25 -93.296875 C 19.925781 -95.628906 25.015625 -97.460938 30.515625 -98.796875 C 33.679688 -99.296875 35.847656 -101.128906 37.015625 -104.296875 C 40.679688 -115.128906 45.390625 -126.421875 51.140625 -138.171875 C 56.898438 -149.929688 63.113281 -160.484375 69.78125 -169.828125 L 72.28125 -172.078125 C 72.445312 -172.242188 72.78125 -172.328125 73.28125 -172.328125 C 74.445312 -172.328125 75.113281 -171.992188 75.28125 -171.328125 C 76.28125 -170.160156 76.613281 -168.660156 76.28125 -166.828125 C 76.113281 -166.160156 75.988281 -165.535156 75.90625 -164.953125 C 75.820312 -164.367188 75.695312 -163.742188 75.53125 -163.078125 C 75.363281 -162.410156 75.195312 -161.78125 75.03125 -161.1875 C 74.863281 -160.601562 74.695312 -159.976562 74.53125 -159.3125 C 72.03125 -150.8125 69.695312 -142.390625 67.53125 -134.046875 C 65.363281 -125.710938 63.28125 -117.296875 61.28125 -108.796875 L 60.53125 -103.546875 C 60.363281 -102.046875 60.945312 -101.210938 62.28125 -101.046875 C 63.445312 -101.046875 64.195312 -100.960938 64.53125 -100.796875 C 66.695312 -100.628906 68.820312 -100.546875 70.90625 -100.546875 C 72.988281 -100.546875 75.113281 -100.460938 77.28125 -100.296875 C 79.445312 -100.128906 81.53125 -100.046875 83.53125 -100.046875 C 85.53125 -100.046875 87.617188 -99.960938 89.796875 -99.796875 C 90.296875 -99.628906 90.796875 -99.546875 91.296875 -99.546875 C 91.796875 -99.546875 92.296875 -99.546875 92.796875 -99.546875 C 93.296875 -99.546875 93.796875 -99.546875 94.296875 -99.546875 C 94.796875 -99.546875 95.210938 -99.546875 95.546875 -99.546875 C 98.046875 -99.546875 100.546875 -99.671875 103.046875 -99.921875 C 105.546875 -100.171875 107.960938 -100.710938 110.296875 -101.546875 L 111.046875 -101.546875 C 111.878906 -101.546875 112.378906 -101.210938 112.546875 -100.546875 C 112.710938 -100.046875 112.796875 -99.460938 112.796875 -98.796875 C 112.796875 -97.960938 112.460938 -97.460938 111.796875 -97.296875 C 111.296875 -97.128906 110.796875 -96.960938 110.296875 -96.796875 C 109.796875 -96.628906 109.378906 -96.460938 109.046875 -96.296875 C 105.710938 -95.628906 102.128906 -95.296875 98.296875 -95.296875 C 97.460938 -95.296875 96.546875 -95.296875 95.546875 -95.296875 C 94.546875 -95.296875 93.628906 -95.378906 92.796875 -95.546875 C 91.960938 -95.546875 91.039062 -95.546875 90.03125 -95.546875 C 89.03125 -95.546875 88.113281 -95.546875 87.28125 -95.546875 C 85.113281 -95.710938 83.03125 -95.835938 81.03125 -95.921875 C 79.03125 -96.003906 77.03125 -96.128906 75.03125 -96.296875 C 72.863281 -96.460938 70.78125 -96.546875 68.78125 -96.546875 C 66.78125 -96.546875 64.78125 -96.628906 62.78125 -96.796875 C 60.945312 -96.796875 59.863281 -96.671875 59.53125 -96.421875 C 59.195312 -96.171875 58.863281 -95.128906 58.53125 -93.296875 C 57.03125 -84.785156 56.113281 -76.28125 55.78125 -67.78125 C 55.445312 -59.28125 55.445312 -50.691406 55.78125 -42.015625 C 55.78125 -38.347656 56.113281 -33.890625 56.78125 -28.640625 C 57.445312 -23.390625 58.40625 -18.21875 59.65625 -13.125 C 60.90625 -8.039062 62.445312 -3.832031 64.28125 -0.5 C 63.613281 -0.164062 62.945312 0 62.28125 0 Z M 42.515625 -101.046875 C 43.015625 -101.046875 43.597656 -101.085938 44.265625 -101.171875 C 44.929688 -101.253906 45.765625 -101.378906 46.765625 -101.546875 C 47.429688 -101.710938 48.515625 -101.796875 50.015625 -101.796875 C 50.515625 -101.796875 51.015625 -101.796875 51.515625 -101.796875 C 52.015625 -101.796875 52.597656 -101.796875 53.265625 -101.796875 C 54.941406 -101.796875 55.863281 -102.546875 56.03125 -104.046875 C 56.195312 -104.210938 56.28125 -104.546875 56.28125 -105.046875 C 56.28125 -105.378906 56.363281 -105.628906 56.53125 -105.796875 C 58.53125 -114.796875 60.695312 -123.671875 63.03125 -132.421875 C 65.363281 -141.179688 67.863281 -150.0625 70.53125 -159.0625 C 70.695312 -159.394531 70.820312 -159.769531 70.90625 -160.1875 C 70.988281 -160.613281 71.113281 -160.992188 71.28125 -161.328125 C 71.445312 -161.828125 71.363281 -162.660156 71.03125 -163.828125 C 69.695312 -162.992188 68.78125 -162.078125 68.28125 -161.078125 C 67.945312 -160.398438 67.570312 -159.8125 67.15625 -159.3125 C 66.738281 -158.8125 66.363281 -158.226562 66.03125 -157.5625 C 56.851562 -141.5625 48.847656 -124.804688 42.015625 -107.296875 C 41.679688 -106.128906 41.390625 -105.128906 41.140625 -104.296875 C 40.890625 -103.460938 40.679688 -102.878906 40.515625 -102.546875 C 40.347656 -101.546875 41.015625 -101.046875 42.515625 -101.046875 Z M 42.515625 -101.046875 "/></g></g></g><g fill="#f3f6fa" fill-opacity="1"><g transform="translate(191.123624, 278.607752)"><g><path d="M 27.265625 -18.515625 C 25.097656 -18.515625 23.554688 -19.140625 22.640625 -20.390625 C 21.722656 -21.640625 20.929688 -23.179688 20.265625 -25.015625 C 18.253906 -29.179688 16.707031 -33.429688 15.625 -37.765625 C 14.539062 -42.097656 13.75 -46.515625 13.25 -51.015625 C 12.914062 -52.347656 12.25 -53.269531 11.25 -53.78125 C 10.75 -53.945312 10 -54.363281 9 -55.03125 C 8.664062 -55.195312 8.25 -55.363281 7.75 -55.53125 C 7.25 -55.695312 6.832031 -55.863281 6.5 -56.03125 C 2.164062 -58.863281 0 -62.78125 0 -67.78125 C 0 -71.945312 1.207031 -76.488281 3.625 -81.40625 C 6.039062 -86.320312 8.332031 -90.367188 10.5 -93.546875 C 12.664062 -96.710938 13.832031 -100.128906 14 -103.796875 C 15.332031 -118.972656 17.789062 -133.644531 21.375 -147.8125 C 24.96875 -161.988281 28.929688 -176.328125 33.265625 -190.828125 C 33.597656 -191.660156 34.015625 -191.910156 34.515625 -191.578125 C 34.847656 -191.578125 35.179688 -191.410156 35.515625 -191.078125 C 36.015625 -190.410156 36.265625 -189.742188 36.265625 -189.078125 C 36.265625 -188.242188 36.179688 -187.578125 36.015625 -187.078125 C 35.847656 -186.242188 35.679688 -185.410156 35.515625 -184.578125 C 35.347656 -183.742188 35.097656 -182.910156 34.765625 -182.078125 C 34.597656 -181.242188 34.390625 -180.367188 34.140625 -179.453125 C 33.890625 -178.535156 33.597656 -177.660156 33.265625 -176.828125 C 30.429688 -166.992188 27.929688 -157.113281 25.765625 -147.1875 C 23.597656 -137.269531 21.765625 -127.304688 20.265625 -117.296875 C 20.097656 -116.628906 20.015625 -115.921875 20.015625 -115.171875 C 20.015625 -114.421875 19.929688 -113.710938 19.765625 -113.046875 C 19.597656 -112.378906 19.554688 -111.671875 19.640625 -110.921875 C 19.722656 -110.171875 19.847656 -109.378906 20.015625 -108.546875 C 21.015625 -108.878906 21.765625 -109.378906 22.265625 -110.046875 C 22.597656 -110.378906 22.890625 -110.710938 23.140625 -111.046875 C 23.390625 -111.378906 23.597656 -111.710938 23.765625 -112.046875 C 31.765625 -122.054688 39.972656 -131.476562 48.390625 -140.3125 C 56.816406 -149.144531 65.78125 -157.898438 75.28125 -166.578125 C 76.613281 -167.910156 77.945312 -169.203125 79.28125 -170.453125 C 80.613281 -171.703125 81.945312 -172.910156 83.28125 -174.078125 C 84.613281 -175.242188 85.90625 -176.492188 87.15625 -177.828125 C 88.40625 -179.160156 89.617188 -180.492188 90.796875 -181.828125 C 91.128906 -182.160156 91.628906 -182.328125 92.296875 -182.328125 C 92.628906 -181.992188 92.796875 -181.410156 92.796875 -180.578125 C 92.960938 -180.078125 92.878906 -179.492188 92.546875 -178.828125 C 92.378906 -178.492188 92.171875 -178.203125 91.921875 -177.953125 C 91.671875 -177.703125 91.460938 -177.410156 91.296875 -177.078125 C 89.285156 -174.578125 87.195312 -172.242188 85.03125 -170.078125 C 73.53125 -159.234375 62.648438 -148.472656 52.390625 -137.796875 C 42.140625 -127.128906 32.179688 -115.378906 22.515625 -102.546875 C 19.515625 -98.878906 17.925781 -94.710938 17.75 -90.046875 C 17.582031 -80.535156 17.582031 -70.945312 17.75 -61.28125 C 17.75 -61.113281 17.75 -60.90625 17.75 -60.65625 C 17.75 -60.40625 17.75 -60.113281 17.75 -59.78125 C 17.75 -58.945312 17.835938 -58.28125 18.015625 -57.78125 C 18.347656 -56.445312 19.179688 -55.78125 20.515625 -55.78125 C 30.679688 -55.78125 40.304688 -57.863281 49.390625 -62.03125 C 58.484375 -66.195312 67.15625 -71.53125 75.40625 -78.03125 C 83.65625 -84.53125 91.367188 -91.117188 98.546875 -97.796875 C 99.210938 -98.296875 99.796875 -98.878906 100.296875 -99.546875 C 100.960938 -100.210938 101.546875 -100.710938 102.046875 -101.046875 C 103.046875 -101.378906 103.546875 -101.546875 103.546875 -101.546875 C 104.210938 -101.546875 104.628906 -101.460938 104.796875 -101.296875 C 105.128906 -100.960938 105.378906 -100.421875 105.546875 -99.671875 C 105.710938 -98.921875 105.628906 -98.378906 105.296875 -98.046875 C 105.128906 -97.378906 104.628906 -96.796875 103.796875 -96.296875 C 95.960938 -88.953125 87.789062 -81.863281 79.28125 -75.03125 C 70.78125 -68.195312 61.734375 -62.609375 52.140625 -58.265625 C 42.554688 -53.929688 32.265625 -51.765625 21.265625 -51.765625 C 19.429688 -51.765625 18.597656 -50.929688 18.765625 -49.265625 C 18.929688 -48.597656 19.054688 -47.890625 19.140625 -47.140625 C 19.222656 -46.390625 19.347656 -45.679688 19.515625 -45.015625 C 19.679688 -44.347656 19.804688 -43.640625 19.890625 -42.890625 C 19.972656 -42.140625 20.097656 -41.347656 20.265625 -40.515625 C 21.097656 -37.679688 22.054688 -34.179688 23.140625 -30.015625 C 24.222656 -25.847656 26.015625 -23.097656 28.515625 -21.765625 C 29.179688 -21.597656 29.347656 -20.847656 29.015625 -19.515625 C 28.847656 -18.847656 28.265625 -18.515625 27.265625 -18.515625 Z M 10.5 -57.03125 C 12 -56.863281 12.75 -57.53125 12.75 -59.03125 C 12.582031 -61.03125 12.457031 -63.03125 12.375 -65.03125 C 12.289062 -67.03125 12.25 -69.113281 12.25 -71.28125 C 12.414062 -72.445312 12.5 -73.53125 12.5 -74.53125 C 12.5 -75.53125 12.5 -76.613281 12.5 -77.78125 C 12.5 -78.78125 12.5 -79.78125 12.5 -80.78125 C 12.5 -81.78125 12.5 -82.863281 12.5 -84.03125 C 12.5 -84.53125 12.25 -84.78125 11.75 -84.78125 C 11.25 -84.78125 11 -84.695312 11 -84.53125 C 8.164062 -80.195312 6.164062 -75.78125 5 -71.28125 C 4.5 -68.445312 4.332031 -66.28125 4.5 -64.78125 C 4.832031 -60.78125 6.832031 -58.195312 10.5 -57.03125 Z M 10.5 -57.03125 "/></g></g></g></svg>